G75*
%MOIN*%
%OFA0B0*%
%FSLAX25Y25*%
%IPPOS*%
%LPD*%
%AMOC8*
5,1,8,0,0,1.08239X$1,22.5*
%
%ADD10C,0.00000*%
%ADD11C,0.00600*%
%ADD12C,0.00400*%
%ADD13C,0.08858*%
D10*
X0001937Y0003333D02*
X0001937Y0045794D01*
X0195638Y0045794D01*
X0195638Y0003333D01*
X0001937Y0003333D01*
D11*
X0064902Y0004701D02*
X0065970Y0003633D01*
X0068105Y0003633D01*
X0069173Y0004701D01*
X0071348Y0003633D02*
X0075618Y0003633D01*
X0075618Y0010039D01*
X0071348Y0010039D01*
X0069173Y0008971D02*
X0069173Y0007904D01*
X0068105Y0006836D01*
X0065970Y0006836D01*
X0064902Y0005768D01*
X0064902Y0004701D01*
X0073483Y0006836D02*
X0075618Y0006836D01*
X0077793Y0006836D02*
X0078861Y0005768D01*
X0082064Y0005768D01*
X0079928Y0005768D02*
X0077793Y0003633D01*
X0082064Y0003633D02*
X0082064Y0010039D01*
X0078861Y0010039D01*
X0077793Y0008971D01*
X0077793Y0006836D01*
X0084239Y0004701D02*
X0084239Y0010039D01*
X0088509Y0010039D02*
X0088509Y0004701D01*
X0087441Y0003633D01*
X0085306Y0003633D01*
X0084239Y0004701D01*
X0092819Y0003633D02*
X0092819Y0010039D01*
X0090684Y0010039D02*
X0094955Y0010039D01*
X0097130Y0008971D02*
X0098197Y0010039D01*
X0100332Y0010039D01*
X0101400Y0008971D01*
X0101400Y0004701D01*
X0100332Y0003633D01*
X0098197Y0003633D01*
X0097130Y0004701D01*
X0103575Y0004701D02*
X0104643Y0003633D01*
X0106778Y0003633D01*
X0107846Y0004701D01*
X0107846Y0010039D01*
X0107872Y0011133D02*
X0112143Y0011133D01*
X0112143Y0017539D01*
X0107872Y0017539D01*
X0105697Y0017539D02*
X0103562Y0015404D01*
X0101427Y0017539D01*
X0101427Y0011133D01*
X0103575Y0010039D02*
X0103575Y0004701D01*
X0110021Y0003633D02*
X0112156Y0005768D01*
X0111088Y0005768D02*
X0114291Y0005768D01*
X0111088Y0005768D02*
X0110021Y0006836D01*
X0110021Y0008971D01*
X0111088Y0010039D01*
X0114291Y0010039D01*
X0114291Y0003633D01*
X0118601Y0003633D02*
X0118601Y0010039D01*
X0116466Y0010039D02*
X0120737Y0010039D01*
X0122912Y0008971D02*
X0123979Y0010039D01*
X0126114Y0010039D01*
X0127182Y0008971D01*
X0127182Y0007904D01*
X0126114Y0006836D01*
X0123979Y0006836D01*
X0122912Y0005768D01*
X0122912Y0004701D01*
X0123979Y0003633D01*
X0126114Y0003633D01*
X0127182Y0004701D01*
X0137938Y0003633D02*
X0137938Y0010039D01*
X0140073Y0010039D02*
X0135803Y0010039D01*
X0136857Y0011133D02*
X0134722Y0011133D01*
X0133654Y0012201D01*
X0133654Y0013268D01*
X0134722Y0014336D01*
X0136857Y0014336D01*
X0137925Y0015404D01*
X0137925Y0016471D01*
X0136857Y0017539D01*
X0134722Y0017539D01*
X0133654Y0016471D01*
X0131479Y0016471D02*
X0129344Y0014336D01*
X0129344Y0011133D01*
X0125034Y0012201D02*
X0123966Y0011133D01*
X0121831Y0011133D01*
X0120763Y0012201D01*
X0120763Y0013268D01*
X0121831Y0014336D01*
X0123966Y0014336D01*
X0125034Y0015404D01*
X0125034Y0016471D01*
X0123966Y0017539D01*
X0121831Y0017539D01*
X0120763Y0016471D01*
X0118588Y0017539D02*
X0114318Y0017539D01*
X0116453Y0017539D02*
X0116453Y0011133D01*
X0105697Y0011133D02*
X0105697Y0017539D01*
X0103549Y0018633D02*
X0100346Y0018633D01*
X0099278Y0019701D01*
X0099278Y0023971D01*
X0100346Y0025039D01*
X0103549Y0025039D01*
X0103549Y0018633D01*
X0099252Y0016471D02*
X0098184Y0017539D01*
X0096049Y0017539D01*
X0094981Y0016471D01*
X0098184Y0014336D02*
X0099252Y0015404D01*
X0099252Y0016471D01*
X0098184Y0014336D02*
X0096049Y0014336D01*
X0094981Y0013268D01*
X0094981Y0012201D01*
X0096049Y0011133D01*
X0098184Y0011133D01*
X0099252Y0012201D01*
X0110007Y0014336D02*
X0112143Y0014336D01*
X0127209Y0016471D02*
X0127209Y0017539D01*
X0127209Y0016471D02*
X0129344Y0014336D01*
X0131479Y0016471D02*
X0131479Y0017539D01*
X0129357Y0018633D02*
X0133628Y0018633D01*
X0133628Y0025039D01*
X0135803Y0022904D02*
X0137938Y0025039D01*
X0140073Y0022904D01*
X0140073Y0018633D01*
X0142248Y0019701D02*
X0142248Y0025039D01*
X0146519Y0025039D02*
X0146519Y0019701D01*
X0145451Y0018633D01*
X0143316Y0018633D01*
X0142248Y0019701D01*
X0135803Y0018633D02*
X0135803Y0022904D01*
X0135803Y0021836D02*
X0140073Y0021836D01*
X0150829Y0018633D02*
X0150829Y0025039D01*
X0152964Y0025039D02*
X0148694Y0025039D01*
X0155139Y0025039D02*
X0159410Y0018633D01*
X0161585Y0018633D02*
X0165855Y0018633D01*
X0165855Y0025039D01*
X0161585Y0025039D01*
X0159410Y0025039D02*
X0155139Y0018633D01*
X0157261Y0017539D02*
X0152991Y0017539D01*
X0152991Y0016471D01*
X0157261Y0012201D01*
X0157261Y0011133D01*
X0152991Y0011133D01*
X0150816Y0011133D02*
X0146545Y0011133D01*
X0145451Y0010039D02*
X0143316Y0010039D01*
X0142248Y0008971D01*
X0145451Y0010039D02*
X0146519Y0008971D01*
X0146519Y0004701D01*
X0145451Y0003633D01*
X0143316Y0003633D01*
X0142248Y0004701D01*
X0148694Y0004701D02*
X0149761Y0003633D01*
X0151896Y0003633D01*
X0152964Y0004701D01*
X0152964Y0010039D01*
X0155139Y0008971D02*
X0156207Y0010039D01*
X0159410Y0010039D01*
X0159410Y0003633D01*
X0157274Y0005768D02*
X0155139Y0003633D01*
X0148694Y0004701D02*
X0148694Y0010039D01*
X0150816Y0011133D02*
X0150816Y0017539D01*
X0146545Y0017539D01*
X0148680Y0014336D02*
X0150816Y0014336D01*
X0159423Y0017539D02*
X0161558Y0017539D01*
X0160490Y0017539D02*
X0160490Y0011133D01*
X0159423Y0011133D02*
X0161558Y0011133D01*
X0163733Y0011133D02*
X0163733Y0017539D01*
X0165868Y0015404D01*
X0168004Y0017539D01*
X0168004Y0011133D01*
X0169098Y0010039D02*
X0171233Y0010039D01*
X0172301Y0008971D01*
X0172301Y0007904D01*
X0171233Y0006836D01*
X0169098Y0006836D01*
X0168030Y0005768D01*
X0168030Y0004701D01*
X0169098Y0003633D01*
X0171233Y0003633D01*
X0172301Y0004701D01*
X0174476Y0003633D02*
X0174476Y0010039D01*
X0176611Y0011133D02*
X0176611Y0017539D01*
X0178746Y0017539D02*
X0174476Y0017539D01*
X0172301Y0017539D02*
X0170165Y0017539D01*
X0171233Y0017539D02*
X0171233Y0011133D01*
X0172301Y0011133D02*
X0170165Y0011133D01*
X0169098Y0010039D02*
X0168030Y0008971D01*
X0165855Y0010039D02*
X0161585Y0010039D01*
X0163720Y0010039D02*
X0163720Y0003633D01*
X0159410Y0005768D02*
X0156207Y0005768D01*
X0155139Y0006836D01*
X0155139Y0008971D01*
X0137925Y0012201D02*
X0136857Y0011133D01*
X0127182Y0018633D02*
X0125047Y0018633D01*
X0126114Y0018633D02*
X0126114Y0025039D01*
X0125047Y0025039D02*
X0127182Y0025039D01*
X0122885Y0025039D02*
X0118615Y0025039D01*
X0118615Y0023971D01*
X0122885Y0019701D01*
X0122885Y0018633D01*
X0118615Y0018633D01*
X0116440Y0018633D02*
X0112169Y0018633D01*
X0116440Y0018633D02*
X0116440Y0025039D01*
X0112169Y0025039D01*
X0114304Y0021836D02*
X0116440Y0021836D01*
X0097103Y0021836D02*
X0092833Y0021836D01*
X0092833Y0022904D02*
X0092833Y0018633D01*
X0088522Y0018633D02*
X0088522Y0025039D01*
X0086387Y0025039D02*
X0090658Y0025039D01*
X0092833Y0022904D02*
X0094968Y0025039D01*
X0097103Y0022904D01*
X0097103Y0018633D01*
X0084212Y0018633D02*
X0084212Y0022904D01*
X0082077Y0025039D01*
X0079942Y0022904D01*
X0079942Y0018633D01*
X0079942Y0021836D02*
X0084212Y0021836D01*
X0069173Y0008971D02*
X0068105Y0010039D01*
X0065970Y0010039D01*
X0064902Y0008971D01*
X0163720Y0021836D02*
X0165855Y0021836D01*
X0170165Y0018633D02*
X0170165Y0025039D01*
X0168030Y0025039D02*
X0172301Y0025039D01*
X0174476Y0025039D02*
X0174476Y0018633D01*
X0178746Y0025039D01*
X0178746Y0018633D01*
X0180921Y0019701D02*
X0180921Y0023971D01*
X0181989Y0025039D01*
X0184124Y0025039D01*
X0185192Y0023971D01*
X0185192Y0019701D01*
X0184124Y0018633D01*
X0181989Y0018633D01*
X0180921Y0019701D01*
X0187367Y0019701D02*
X0188434Y0018633D01*
X0190569Y0018633D01*
X0191637Y0019701D01*
X0191637Y0023971D01*
X0190569Y0025039D01*
X0188434Y0025039D01*
X0187367Y0023971D01*
X0188434Y0017539D02*
X0187367Y0016471D01*
X0187367Y0012201D01*
X0188434Y0011133D01*
X0190569Y0011133D01*
X0191637Y0012201D01*
X0191637Y0016471D01*
X0190569Y0017539D01*
X0188434Y0017539D01*
X0185192Y0017539D02*
X0181989Y0017539D01*
X0180921Y0016471D01*
X0180921Y0014336D01*
X0181989Y0013268D01*
X0185192Y0013268D01*
X0185192Y0011133D02*
X0185192Y0017539D01*
X0184124Y0010039D02*
X0181989Y0010039D01*
X0180921Y0008971D01*
X0180921Y0004701D01*
X0181989Y0003633D01*
X0184124Y0003633D01*
X0185192Y0004701D01*
X0185192Y0008971D01*
X0184124Y0010039D01*
X0187367Y0008971D02*
X0188434Y0010039D01*
X0190569Y0010039D01*
X0191637Y0008971D01*
X0191637Y0004701D01*
X0190569Y0003633D01*
X0188434Y0003633D01*
X0187367Y0004701D01*
X0178746Y0003633D02*
X0178746Y0010039D01*
X0174476Y0003633D01*
D12*
X0175623Y0031033D02*
X0177158Y0031033D01*
X0177925Y0031801D01*
X0175623Y0031033D02*
X0174856Y0031801D01*
X0174856Y0032568D01*
X0175623Y0033335D01*
X0177158Y0033335D01*
X0177925Y0034103D01*
X0177925Y0034870D01*
X0177158Y0035637D01*
X0175623Y0035637D01*
X0174856Y0034870D01*
X0173321Y0035637D02*
X0170252Y0035637D01*
X0168717Y0035637D02*
X0166415Y0035637D01*
X0165648Y0034870D01*
X0165648Y0033335D01*
X0166415Y0032568D01*
X0168717Y0032568D01*
X0167183Y0032568D02*
X0165648Y0031033D01*
X0164113Y0031801D02*
X0163346Y0031033D01*
X0161812Y0031033D01*
X0161044Y0031801D01*
X0161044Y0035637D01*
X0159510Y0034870D02*
X0159510Y0031801D01*
X0158742Y0031033D01*
X0157208Y0031033D01*
X0156440Y0031801D01*
X0153371Y0031033D02*
X0153371Y0035637D01*
X0154906Y0035637D02*
X0151836Y0035637D01*
X0150302Y0035637D02*
X0148767Y0035637D01*
X0149534Y0035637D02*
X0149534Y0031033D01*
X0148767Y0031033D02*
X0150302Y0031033D01*
X0147232Y0031801D02*
X0146465Y0031033D01*
X0144930Y0031033D01*
X0144163Y0031801D01*
X0144163Y0034870D01*
X0144930Y0035637D01*
X0146465Y0035637D01*
X0147232Y0034870D01*
X0147232Y0031801D01*
X0142628Y0031033D02*
X0142628Y0035637D01*
X0139559Y0031033D01*
X0139559Y0035637D01*
X0133421Y0035637D02*
X0131119Y0035637D01*
X0130351Y0034870D01*
X0130351Y0033335D01*
X0131119Y0032568D01*
X0133421Y0032568D01*
X0128817Y0032568D02*
X0126515Y0032568D01*
X0125747Y0033335D01*
X0125747Y0034870D01*
X0126515Y0035637D01*
X0128817Y0035637D01*
X0128817Y0031033D01*
X0127282Y0032568D02*
X0125747Y0031033D01*
X0124213Y0031801D02*
X0123445Y0031033D01*
X0121911Y0031033D01*
X0121144Y0031801D01*
X0121144Y0034870D01*
X0121911Y0035637D01*
X0123445Y0035637D01*
X0124213Y0034870D01*
X0124213Y0031801D01*
X0119609Y0031801D02*
X0118842Y0031033D01*
X0118074Y0031033D01*
X0117307Y0031801D01*
X0117307Y0035637D01*
X0118074Y0035637D02*
X0116540Y0035637D01*
X0115005Y0035637D02*
X0115005Y0031033D01*
X0111936Y0031033D01*
X0110401Y0031801D02*
X0109634Y0031033D01*
X0108099Y0031033D01*
X0107332Y0031801D01*
X0110401Y0031801D02*
X0110401Y0034870D01*
X0109634Y0035637D01*
X0108099Y0035637D01*
X0107332Y0034870D01*
X0105797Y0035637D02*
X0102728Y0035637D01*
X0104262Y0035637D02*
X0104262Y0031033D01*
X0113470Y0033335D02*
X0115005Y0033335D01*
X0115005Y0035637D02*
X0111936Y0035637D01*
X0116540Y0038533D02*
X0119609Y0038533D01*
X0119609Y0043137D01*
X0116540Y0043137D01*
X0121144Y0043137D02*
X0121144Y0040068D01*
X0122678Y0038533D01*
X0124213Y0040068D01*
X0124213Y0043137D01*
X0125747Y0043137D02*
X0127282Y0043137D01*
X0126515Y0043137D02*
X0126515Y0038533D01*
X0127282Y0038533D02*
X0125747Y0038533D01*
X0130351Y0038533D02*
X0130351Y0043137D01*
X0128817Y0043137D02*
X0131886Y0043137D01*
X0133421Y0042370D02*
X0134188Y0043137D01*
X0135723Y0043137D01*
X0136490Y0042370D01*
X0136490Y0039301D01*
X0135723Y0038533D01*
X0134188Y0038533D01*
X0133421Y0039301D01*
X0138025Y0038533D02*
X0141094Y0038533D01*
X0141094Y0043137D01*
X0138025Y0043137D01*
X0145698Y0043137D02*
X0145698Y0038533D01*
X0142628Y0038533D01*
X0147232Y0038533D02*
X0150302Y0038533D01*
X0150302Y0043137D01*
X0151836Y0042370D02*
X0152604Y0043137D01*
X0154138Y0043137D01*
X0154906Y0042370D01*
X0154906Y0039301D01*
X0154138Y0038533D01*
X0152604Y0038533D01*
X0151836Y0039301D01*
X0151836Y0042370D01*
X0156440Y0042370D02*
X0157208Y0043137D01*
X0158742Y0043137D01*
X0159510Y0042370D01*
X0159510Y0039301D01*
X0158742Y0038533D01*
X0157208Y0038533D01*
X0156440Y0039301D01*
X0165648Y0039301D02*
X0165648Y0040835D01*
X0167183Y0040835D01*
X0170252Y0040835D02*
X0171019Y0040068D01*
X0173321Y0040068D01*
X0171787Y0040068D02*
X0170252Y0038533D01*
X0173321Y0038533D02*
X0173321Y0043137D01*
X0171019Y0043137D01*
X0170252Y0042370D01*
X0170252Y0040835D01*
X0168717Y0039301D02*
X0167950Y0038533D01*
X0166415Y0038533D01*
X0165648Y0039301D01*
X0168717Y0039301D02*
X0168717Y0042370D01*
X0167950Y0043137D01*
X0166415Y0043137D01*
X0165648Y0042370D01*
X0174856Y0042370D02*
X0175623Y0043137D01*
X0177158Y0043137D01*
X0177925Y0042370D01*
X0177925Y0039301D01*
X0177158Y0038533D01*
X0175623Y0038533D01*
X0174856Y0039301D01*
X0174856Y0042370D01*
X0179460Y0042370D02*
X0179460Y0041603D01*
X0180227Y0040835D01*
X0182529Y0040835D01*
X0184064Y0042370D02*
X0185598Y0040835D01*
X0185598Y0038533D01*
X0182529Y0038533D02*
X0180227Y0038533D01*
X0179460Y0039301D01*
X0179460Y0040068D01*
X0180227Y0040835D01*
X0185598Y0040835D02*
X0187133Y0042370D01*
X0187133Y0043137D01*
X0188668Y0042370D02*
X0189435Y0043137D01*
X0190970Y0043137D01*
X0191737Y0042370D01*
X0191737Y0039301D01*
X0190970Y0038533D01*
X0189435Y0038533D01*
X0188668Y0039301D01*
X0182529Y0038533D02*
X0182529Y0043137D01*
X0180227Y0043137D01*
X0179460Y0042370D01*
X0184064Y0042370D02*
X0184064Y0043137D01*
X0184831Y0035637D02*
X0184064Y0034870D01*
X0184064Y0031801D01*
X0184831Y0031033D01*
X0186366Y0031033D01*
X0187133Y0031801D01*
X0187133Y0034870D01*
X0186366Y0035637D01*
X0184831Y0035637D01*
X0182529Y0035637D02*
X0179460Y0031033D01*
X0179460Y0035637D01*
X0182529Y0035637D02*
X0182529Y0031033D01*
X0188668Y0031801D02*
X0189435Y0031033D01*
X0190970Y0031033D01*
X0191737Y0031801D01*
X0191737Y0034870D01*
X0190970Y0035637D01*
X0189435Y0035637D01*
X0188668Y0034870D01*
X0171787Y0035637D02*
X0171787Y0031033D01*
X0168717Y0031033D02*
X0168717Y0035637D01*
X0164113Y0035637D02*
X0164113Y0031801D01*
X0159510Y0034870D02*
X0158742Y0035637D01*
X0157208Y0035637D01*
X0156440Y0034870D01*
X0141094Y0040835D02*
X0139559Y0040835D01*
X0119609Y0040835D02*
X0118074Y0040835D01*
X0133421Y0035637D02*
X0133421Y0031033D01*
D13*
X0071937Y0029262D02*
X0071937Y0020404D01*
X0057937Y0027904D02*
X0057937Y0036762D01*
X0046937Y0036762D02*
X0046937Y0027904D01*
X0035937Y0027904D02*
X0035937Y0036762D01*
X0021937Y0029262D02*
X0021937Y0020404D01*
M02*
